<svg width="47" height="47" viewBox="0 0 47 47" fill="none" xmlns="http://www.w3.org/2000/svg">
<path d="M30.3543 13.585C32.4388 14.7878 34.1698 16.5185 35.373 18.6028C36.5763 20.6872 37.2093 23.0517 37.2084 25.4584V41.125H29.0422C28.6376 42.2717 27.8873 43.2646 26.8947 43.967C25.9021 44.6693 24.716 45.0465 23.5001 45.0465C22.2841 45.0465 21.0981 44.6693 20.1055 43.967C19.1129 43.2646 18.3626 42.2717 17.958 41.125H9.79175V25.4584C9.79087 23.0517 10.4239 20.6872 11.6271 18.6028C12.8304 16.5185 14.5613 14.7878 16.6459 13.585C16.3241 13.007 16.0774 12.3904 15.9115 11.75H9.79175V7.83338H15.9135C16.3491 6.15265 17.3305 4.66416 18.7036 3.60156C20.0767 2.53896 21.7638 1.9624 23.5001 1.9624C25.2363 1.9624 26.9234 2.53896 28.2966 3.60156C29.6697 4.66416 30.6511 6.15265 31.0867 7.83338H37.2084V11.75H31.0867C30.9212 12.3899 30.6758 13.0064 30.3562 13.585H30.3543ZM23.5001 27.4167C22.9807 27.4167 22.4826 27.623 22.1153 27.9903C21.7481 28.3575 21.5418 28.8557 21.5418 29.375V39.1667C21.5418 39.6861 21.7481 40.1842 22.1153 40.5515C22.4826 40.9187 22.9807 41.125 23.5001 41.125C24.0195 41.125 24.5176 40.9187 24.8848 40.5515C25.2521 40.1842 25.4584 39.6861 25.4584 39.1667V29.375C25.4584 28.8557 25.2521 28.3575 24.8848 27.9903C24.5176 27.623 24.0195 27.4167 23.5001 27.4167ZM23.5001 13.7084C24.5389 13.7084 25.5351 13.2957 26.2696 12.5612C27.0041 11.8267 27.4168 10.8305 27.4168 9.79171C27.4168 8.75294 27.0041 7.75672 26.2696 7.02221C25.5351 6.28769 24.5389 5.87504 23.5001 5.87504C22.4613 5.87504 21.4651 6.28769 20.7306 7.02221C19.9961 7.75672 19.5834 8.75294 19.5834 9.79171C19.5834 10.8305 19.9961 11.8267 20.7306 12.5612C21.4651 13.2957 22.4613 13.7084 23.5001 13.7084Z" fill="#3F53D8"/>
</svg>
